/* XPM */
static char *_643373908317[] = {
/* columns rows colors chars-per-pixel */
"32 32 78 1 ",
"  c #010101",
". c #0B0B0B",
"X c #11110F",
"o c #141413",
"O c #191916",
"+ c #1D1D1A",
"@ c #22221D",
"# c #242522",
"$ c #272823",
"% c #2A2A25",
"& c #2D2D2A",
"* c #302F2A",
"= c #33332D",
"- c #353532",
"; c #3C3C34",
": c #3B3B3B",
"> c #403F37",
", c #3F4038",
"< c #44443C",
"1 c #48483F",
"2 c #464641",
"3 c #4C4C43",
"4 c #4F4F4B",
"5 c #515146",
"6 c #54544A",
"7 c #59594E",
"8 c #5D5D52",
"9 c #626256",
"0 c #656559",
"q c #68675A",
"w c #67685D",
"e c #6B6B5D",
"r c #6D6D62",
"t c #6F7065",
"y c #727365",
"u c #75756A",
"i c #7A7B6D",
"p c #7B7B71",
"a c #7F8071",
"s c #838375",
"d c #87877B",
"f c #888778",
"g c #878879",
"h c #8A8A7C",
"j c #878880",
"k c #8B8C81",
"l c #939385",
"z c #93938A",
"x c #979888",
"c c #9C9D8D",
"v c #9D9D93",
"b c #9FA093",
"n c #A1A293",
"m c #A6A698",
"M c #A9AA9E",
"N c #ACACA1",
"B c #AFB0A5",
"V c #B1B2A5",
"C c #B4B5AA",
"Z c #B9B9AE",
"A c #BCBDB3",
"S c #BFC0B8",
"D c #C0C1B7",
"F c #C4C5BB",
"G c #C7C8BF",
"H c #C9CAC2",
"J c #D2D3CC",
"K c #D6D7D0",
"L c #D9D9D3",
"P c #DEDED9",
"I c #DFE0DC",
"U c #E4E4DF",
"Y c #E5E5E1",
"T c #E9EAE6",
"R c #EEEEEB",
"E c #F0F1EE",
"W c #F5F6F4",
"Q c None",
/* pixels */
"QQQQQQQQQQQTEUFs;QQQQQQQQQQQQQQQ",
"QQQQQQHUJZATJDMi7<rghQQQQQQQQQQQ",
"QQQQQAEWRIDnsueey7nMxr1QQQQQQQQQ",
"QYQQMLLVMnh1=y7%5ehhsi6QQQPQQQQQ",
"JUgQVAs6111<1u<<1<;-;q8=QKLQQQQQ",
"JH78nh18exDZVhehNAu<;;718GA3QQQQ",
"Ne=7h6ulnxuusmfrqesfu6<5pv9=QQQQ",
"A691u9usyi6egZaq365606<6hM69QQQQ",
"FMk3;ig;@@@78s7-%@@+<0<=sANdQQQQ",
"mg0<5g;    ;=<=@+   .1e;icfqQQQQ",
"cf7;85      %+O+     X65rxf7QQQQ",
"<g&=0+      o%$.      <0;2i%QQQQ",
"q5=;9.                &8395=QQQQ",
"c9;=7                 &73lq;QQQQ",
"xq;;7                 =61l9=QQQQ",
"7-@-7.                %7<7<@QQQQ",
";<@=8                 &5;=&+   Q",
"99==9.                &<;89%.  Q",
"10%=6.   .   ..  .  . #2;<7+.  Q",
"<9%=7   ..............$2=;6+   Q",
";1@&6.  ....oo.X.ooXXo&-%;6+   Q",
"@%+%4. ....ooooooooo++&&@@%o.  Q",
"<=%$4...oo####+#$#+###&&@=*@.  Q",
"91=@2o.++@#&&-&&--&&&&-&@<;$   Q",
"7=%@1Xo$&-:-:::--::-:-;#@;=@.  Q",
"3*%@;o$;26442222<222<;<=@;=%   Q",
">=@O=%%*=---&$&*&&&-&*&%@*%%.  Q",
"*%@&70wputytrrw00909rte81%%@  QQ",
"dvkhMMa68787889843668CSZbsprXQQQ",
"KLJDVAu%8udlvnvvbbbbhBHFFFBcOQQQ",
"vNvzkd3@688urpuputpr8pkkzzdtQQQQ",
"=-=&&-@QQQQQQQQQQQQQQ&=&-%=$QQQQ"
};
