/* XPM */
static char *_643373877212[] = {
/* columns rows colors chars-per-pixel */
"32 32 75 1 ",
"  c black",
". c #0E0E0B",
"X c #11110F",
"o c #141412",
"O c #1A1A16",
"+ c #1D1D1A",
"@ c #22231E",
"# c #262621",
"$ c #272822",
"% c #2A2B25",
"& c #2E2E28",
"* c #2F3029",
"= c #33332D",
"- c #373730",
"; c #383730",
": c #373830",
"> c #3B3B33",
", c #403F37",
"< c #3F4037",
"1 c #414237",
"2 c #43433B",
"3 c #47483F",
"4 c #48483F",
"5 c #4C4C43",
"6 c #4F5046",
"7 c #515146",
"8 c #55554A",
"9 c #59594E",
"0 c #5D5D52",
"q c #5F6054",
"w c #626256",
"e c #666559",
"r c #67685A",
"t c #696A5D",
"y c #6D6D61",
"u c #706F63",
"i c #737465",
"p c #75756A",
"a c #797769",
"s c #7A7A6C",
"d c #7D7E71",
"f c #807F71",
"g c #838374",
"h c #86877D",
"j c #8A8A7C",
"k c #8D8D82",
"l c #929285",
"z c #95958A",
"x c #9B9B8C",
"c c #9D9E91",
"v c #A1A294",
"b c #A5A69A",
"n c #A9AA9D",
"m c #AEAEA2",
"M c #B1B2A5",
"N c #B5B6AA",
"B c #B7B8AC",
"V c #BDBEB5",
"C c #BFC0B6",
"Z c #C4C4BB",
"A c #CACAC3",
"S c #CFCFC8",
"D c #CFD0C8",
"F c #D1D2CA",
"G c #D6D7D0",
"H c #DADAD5",
"J c #DEDED9",
"K c #E2E2DE",
"L c #E7E7E4",
"P c #E7E8E4",
"I c #EAEAE6",
"U c #EEEEEB",
"Y c #F1F1EF",
"T c #F2F2F0",
"R c None",
/* pixels */
"RRRRRRRRRRRRFPJctRRRRRRRRRRRRRRR",
"RRRRRRRRRRRAYUHbe*RRRRRRRRRRRRRR",
"RRRRRRRFTLSADmbcsw0hvj4RRRRRRRRR",
"RRGRRRAYJFAnp8p04ugbxgr2RRGRRRRR",
"RRImRnHngsaw=;i;=1ewetf>RRUBRRRR",
"RFHpwnb0470psai6taw>=>q7%RHhRRRR",
"RFl>8xeehnclhjlsddgldw>81Dz5>RRR",
"RA515g5dki9==>-*=>5wuy557F7,1RRR",
"RFch55yj037ripiet0t2;88*7AnlwRRR",
"Rnlt31c8-eri#@%@@49846t87vls5RRR",
"Rnge,5w>88w9$&31;498446r7cji4RRR",
"R>j=&0=1,@wt>>>;4ar;+e4e0#g7+RRR",
"Re9==e&5q09e;4t05r019789qw82+RRR",
"Rve,&q&&7eqe2etr%e878&9q9ka5+RRR",
"Rvt1&9%%=3189ubs576@;=698za6ORRR",
"Rw,%&9%17ii8exZpt494e848997*oRRR",
"R-5$&0%2>>;-5sf>1O;===197+>$.   ",
"R8q-&t$----0--2&@$==&&>73@e5.   ",
"R1w=%8$$$$>q+$#O@+O@=@>43+9>.   ",
"R>0&%0%&0008##$#@,&+0=>51+7>.   ",
"R&2&$8$25555&=+$;62@271>=+7>.   ",
"R+#+$7$>>+>5%-##=4,+&;=>=o%+.   ",
"Rt5-#5##@%>5O+OO@;*ooO&>$>5=o   ",
"R02=+5#&30>-+-66=%;;4*%;#=>=o   ",
"R0=&@5@->>-*%$&&&$>$*=&>$===o   ",
"R5=&O=O&>58855-5>>>1>=-2&-==o  R",
"R>%$O>>>55555>>>>>1>1<>>>&$&X  R",
"R&=%>lncNMmmmvcvxvzxxmNnj$=$o RR",
"RVFZBNMe$5500yyutweyt<ZAZCnx5RRR",
"RHLHAZZw=tpdkkzzzzkkk1VAAFAN0RRR",
"R>511--@RRRRRRRRRRRRR+<=>=>&@RRR",
"RRRRRRRRRRRRRRRRRRRRRRRRRRRRRRRR"
};
