/* XPM */
static char *_643505602559[] = {
/* columns rows colors chars-per-pixel */
"32 32 162 2 ",
"   c #000000",
".  c #0A0504",
"X  c #0A0806",
"o  c #0E0D0D",
"O  c #11070C",
"+  c #140D0D",
"@  c #18100E",
"#  c #12120C",
"$  c #160E11",
"%  c #190F15",
"&  c #101010",
"*  c #1B1413",
"=  c #1E1B1B",
"-  c #1A141A",
";  c #261915",
":  c #23131D",
">  c #241D1C",
",  c #281D1F",
"<  c #162210",
"1  c #27221C",
"2  c #382617",
"3  c #241124",
"4  c #2B1D23",
"5  c #2C1425",
"6  c #331C2C",
"7  c #262121",
"8  c #2B2424",
"9  c #2D2823",
"0  c #312624",
"q  c #322F25",
"w  c #332C2B",
"e  c #3C2F2F",
"r  c #37232C",
"t  c #343528",
"y  c #3C312C",
"u  c #3A3023",
"i  c #373232",
"p  c #3C3433",
"a  c #3F3C36",
"s  c #401F33",
"d  c #463B26",
"f  c #463C28",
"g  c #452539",
"h  c #413635",
"j  c #443A39",
"k  c #4A3F3E",
"l  c #513D3A",
"z  c #6B262B",
"x  c #6A3F2A",
"c  c #6D3A34",
"v  c #703A33",
"b  c #3F422F",
"n  c #3C4530",
"m  c #424533",
"M  c #454D37",
"N  c #4B403F",
"B  c #4E4432",
"V  c #50403F",
"C  c #465337",
"Z  c #48553B",
"A  c #4B593A",
"S  c #6B402A",
"D  c #664532",
"F  c #6C4839",
"G  c #744C3C",
"H  c #7A5B39",
"J  c #745138",
"K  c #5D773F",
"L  c #5E7C3A",
"P  c #6C663E",
"I  c #4D2E41",
"U  c #4E4141",
"Y  c #4E4E4D",
"T  c #514243",
"R  c #554847",
"E  c #584B47",
"W  c #5B4E4D",
"Q  c #525641",
"!  c #5C554D",
"~  c #684F41",
"^  c #765445",
"/  c #645453",
"(  c #635F5E",
")  c #665953",
"_  c #705956",
"`  c #556444",
"'  c #5D644B",
"]  c #63784C",
"[  c #6C655C",
"{  c #776458",
"}  c #657452",
"|  c #6A7657",
" . c #697B56",
".. c #774A67",
"X. c #794067",
"o. c #785C6B",
"O. c #6E6961",
"+. c #766966",
"@. c #7F766A",
"#. c #7B7465",
"$. c #7F7078",
"%. c #8B452F",
"&. c #954E38",
"*. c #88573B",
"=. c #9F5833",
"-. c #A05833",
";. c #89653C",
":. c #855E43",
">. c #895C41",
",. c #846F47",
"<. c #8B6749",
"1. c #906D4C",
"2. c #9F724C",
"3. c #826950",
"4. c #8F6A56",
"5. c #8F7A5F",
"6. c #937A57",
"7. c #A1754D",
"8. c #834A71",
"9. c #867362",
"0. c #917C61",
"q. c #6A8053",
"w. c #728659",
"e. c #748660",
"r. c #798D63",
"t. c #7D9365",
"y. c #948B50",
"u. c #9D8458",
"i. c #A48B5C",
"p. c #81926D",
"a. c #85996F",
"s. c #86827A",
"d. c #9A8478",
"f. c #998170",
"g. c #8A9C76",
"h. c #AD966D",
"j. c #BF9461",
"k. c #AC8F77",
"l. c #8CA176",
"z. c #94AA7D",
"x. c #B5A077",
"c. c #B7A27C",
"v. c #B9A47E",
"b. c #AC7F9C",
"n. c #948985",
"m. c #948B88",
"M. c #AE809E",
"N. c #A69E9A",
"B. c #9AAE84",
"V. c #9BAC88",
"C. c #9DB08A",
"Z. c #BCA888",
"A. c #BDA691",
"S. c #A9BB96",
"D. c #CEBFAA",
"F. c #C9C3BC",
"G. c #D5C9B3",
"H. c #D9CEBA",
"J. c #DBD0BD",
"K. c #E9E5DF",
"L. c #F1F0F0",
"P. c None",
/* pixels */
"P.P.P.P.P.P.P.P.P.P.P.P.* P.@ P.P.@ P.* P.P.P.P.P.P.P.P.P.P.P.P.",
"P.P.P.P.P.P.P.P.P.P.P.P.p P.n Z Z n P.i P.P.P.P.P.P.P.P.P.P.P.P.",
"P.P.P.P.P.P.P.P.P.P.* P.C B.B.e.e.B.B.C P.* P.P.P.P.P.P.P.P.P.P.",
"P.P.P.P.P.P.P.P.P.1 w } l.z.C.t.t.C.z.l. .7 > P.P.P.P.P.P.P.P.P.",
"P.P.P.P.P.P.P.P.P.w t g.a.S.l.A A l.S.a.g.9 w P.P.P.P.P.P.P.P.P.",
"P.P.P.P.P.P.P.P.P.R } B.V.t.` N.N.` p.V.B.} R P.P.P.P.P.P.P.P.P.",
"P.P.P.P.P.P.P.P.P.U l.z.[ r.] M.M.] r.[ z.l.N P.P.P.P.P.P.P.P.P.",
"P.P.P.P.P.P.P.P.p p t.w.i r.K 8.X.] r.t q.t.p j P.P.P.P.P.P.P.P.",
"P.P.P.P.P.P.P.P.h j q.> e V.Q o./ Q B.w 1 q.j p P.P.P.P.P.P.P.P.",
"P.P.P.P.P.P.P.P.y 8 C U > q | } | | q > N C 9 p P.P.P.P.P.P.P.P.",
"P.P.P.P.P.P.P.P.p N | / m ! `  . .` ! M / | I p P.P.P.P.P.P.P.P.",
"P.P.P.P.P.P.P.+ j W 7 k w.) M } ' C ) w.k 1 W j + P.P.P.P.P.P.P.",
"P.P.P.P.P.P.P.P.i h 8 e n +.y M n y +.b e 8 a e # P.P.P.P.P.P.P.",
"P.P.P.P.P.P.P.P.9 j > j 9 E t P P t R 9 j > j 8 < P.P.P.P.P.P.P.",
"P.P.* i.v.i.T p 4 w : W T / L y.y.L / U R : w , t T i.v.i.* P.P.",
"P.k.L.H.J.H.y 1 > ( ..a * k > j.j.1 N * j ..( > 1 y J.J.H.L.k.P.",
"P.K.^   P.X y w > g $.8 g T j { 3.j T g 8 +.I > e e X P.  ^ K.P.",
"n.+ P.P.u.4.h = * 4 r 1 1 h y e e w h 8 7 4 4 - = p 4.u.P.P.+ n.",
"n.P.P.Z.i._ = U w / $ 4 j 7 W 4 4 W 7 k 4 * / w k = _ i.v.P.P.m.",
"P.P.{ h.P.P.4 j R U > a T w a a p h w R p = U T h 7 P.P.h.{ P.P.",
"P.P.5.d P.P.a 9 9 D H <.u.x I 9 9 N x 6.:.H D 9 9 a P.P.d 0.P.P.",
"P.P.x.P.P.  d.P.> <.>.c G &.i 8 4 i &.G c >.<.> P.d.  P.P.v.P.P.",
"P.P.Z.P.P.,.! P.P.1 * : $ ; & 6 6 & ; $ : * 1 P.P.! ,.P.P.Z.P.P.",
"P.P.G.P.P.c.P.P.P.D 3 - z ; #.& + #.; z - 3 D P.P.P.v.P.P.G.P.P.",
"P.P.G.P.P.v.P.P.P.2.1.%.-.2 .   . X 2 -.%.<.7.P.P.P.v.P.P.G.P.P.",
"P.P.H.P.P.x.P.P.P.~ J 0 *.> d + . u > *.0 J ~ P.P.P.x.P.P.H.P.P.",
"P.P.A.P.P.6.Y P.P.1 T U T r O @ + * r I T l , P.P.Y 6.P.P.A.P.P.",
"P.P.f.B P.p 9.P.P.; J h w s 5 + O 5 r w h J > P.P.@.h P.B f.P.P.",
"P.P.P.G.P.P.G.P.P.P.;.7 P.3 P.P.P.P.: P.7 ;.P.P.P.G.P.P.G.P.P.P.",
"P.P.P.A.P.P.F.P.P.P.P.P.P.P.P.P.P.P.P.P.P.P.P.P.P.F.P.P.A.P.P.P.",
"P.P.P.P.f P.9.s.P.P.P.P.P.P.P.P.P.P.P.P.P.P.P.P.s.9.P.f P.P.P.P.",
"P.P.P.P.P.P.P.l O.P.P.P.P.P.P.P.P.P.P.P.P.P.P.O.l P.P.P.P.P.P.P."
};
