/* XPM */
static char *_643372270903[] = {
/* columns rows colors chars-per-pixel */
"32 32 190 2 ",
"   c #231614",
".  c #231815",
"X  c #2C1916",
"o  c #271B1A",
"O  c #2A1D1C",
"+  c #301F1F",
"@  c #2D201F",
"#  c #32221E",
"$  c #3B251D",
"%  c #2E2321",
"&  c #322423",
"*  c #3E2622",
"=  c #352A26",
"-  c #3D2926",
";  c #3D2E2B",
":  c #3F3126",
">  c #522D1F",
",  c #462C21",
"<  c #4F2E21",
"1  c #4F3725",
"2  c #423028",
"3  c #583928",
"4  c #483731",
"5  c #563E35",
"6  c #5E442F",
"7  c #5D4737",
"8  c #63442C",
"9  c #6B4328",
"0  c #694630",
"q  c #694637",
"w  c #644B3B",
"e  c #744E3A",
"r  c #69523A",
"t  c #765239",
"y  c #76533C",
"u  c #7C5B3E",
"i  c #5D4841",
"p  c #685640",
"a  c #6E5C42",
"s  c #765C47",
"d  c #7B664C",
"f  c #7A6551",
"g  c #835C3C",
"h  c #83603C",
"j  c #856549",
"k  c #8B654A",
"l  c #896948",
"z  c #966F4E",
"x  c #88704F",
"c  c #9E734D",
"v  c #856552",
"b  c #846C54",
"n  c #896B54",
"m  c #80695A",
"M  c #946452",
"N  c #936D50",
"B  c #956F58",
"V  c #84715D",
"C  c #8E755B",
"Z  c #967353",
"A  c #9C7E54",
"S  c #92745D",
"D  c #967A5E",
"F  c #A57E53",
"G  c #AA7F50",
"H  c #8E7562",
"J  c #9D7B61",
"K  c #997865",
"L  c #997F69",
"P  c #A17C61",
"I  c #9E825E",
"U  c #AA8A5C",
"Y  c #B1935D",
"T  c #9C8466",
"R  c #9B836A",
"E  c #9D8B69",
"W  c #9C8474",
"Q  c #9F8970",
"!  c #A58664",
"~  c #A78864",
"^  c #AB8C65",
"/  c #A3856B",
"(  c #A68A6B",
")  c #AB8C6D",
"_  c #B48E6A",
"`  c #AE9567",
"'  c #AE916D",
"]  c #B19266",
"[  c #B3946B",
"{  c #B59B6B",
"}  c #BA9D6C",
"|  c #AC8B74",
" . c #B08F72",
".. c #AB9473",
"X. c #B19475",
"o. c #B49872",
"O. c #BA9D73",
"+. c #B39779",
"@. c #B39B7C",
"#. c #BA9E7D",
"$. c #BFA66E",
"%. c #BDA273",
"&. c #BFA875",
"*. c #B6A07E",
"=. c #BDA47D",
"-. c #BEA97D",
";. c #C2A36F",
":. c #C2A672",
">. c #C3A976",
",. c #C2A67C",
"<. c #C4AC7C",
"1. c #C9AE7C",
"2. c #C7B17F",
"3. c #CBB37E",
"4. c #A19582",
"5. c #AC9C82",
"6. c #AF9F8B",
"7. c #B39E84",
"8. c #BA9D81",
"9. c #AFA18D",
"0. c #B6A487",
"q. c #BCA483",
"w. c #BEAA82",
"e. c #B7A58F",
"r. c #BEAC88",
"t. c #B0A391",
"y. c #BFAF90",
"u. c #C0A381",
"i. c #C3AB82",
"p. c #CAAF84",
"a. c #C4AC8A",
"s. c #C9AE8A",
"d. c #C6B182",
"f. c #CBB484",
"g. c #CDB884",
"h. c #C4B28B",
"j. c #CCB48B",
"k. c #CEBA8C",
"l. c #D0B785",
"z. c #D1B886",
"x. c #D1B48F",
"c. c #D2BD8D",
"v. c #C5AF91",
"b. c #C5B497",
"n. c #CCB493",
"m. c #CEBB94",
"M. c #C7BA9C",
"N. c #CCBA9B",
"B. c #D0B797",
"V. c #D2BC93",
"C. c #D2BB9B",
"Z. c #C7BCA5",
"A. c #D6C08B",
"S. c #D5C193",
"D. c #DAC596",
"F. c #DCC892",
"G. c #D4C19A",
"H. c #D9C59C",
"J. c #DCC99D",
"K. c #D4C4A3",
"L. c #D9C7A2",
"P. c #DCCAA4",
"I. c #D1C3AA",
"U. c #D7C9AC",
"Y. c #DBCBAA",
"T. c #CFC3B3",
"R. c #D4C6B1",
"E. c #D5C9B3",
"W. c #DACFB7",
"Q. c #D3CAB8",
"!. c #DACDBA",
"~. c #DDD0B3",
"^. c #DBD1BB",
"/. c #E2D1AD",
"(. c #E1D6BD",
"). c #DFD8C6",
"_. c #DAD3C9",
"`. c #DFDAD8",
"'. c #E1D9C5",
"]. c #E3DAC8",
"[. c #E6DFD9",
"{. c #E9E2D4",
"}. c #EAE5DD",
"|. c #E9E7E3",
" X c #EEE9E2",
".X c None",
"XX c None",
"oX c None",
"OX c None",
"+X c None",
/* pixels */
"OXOXOXOXOXOXOX+X+XOXOX'.!.N.w.=.=.M.^._.OXOXOXOX+XOXOXOXOXOXOX+X",
"OXOXOXOXOXOXOX+X].K.1.1.1.<.<.=.=.w.=.r.r.Q.|.OXOXOXOXOXOXOXOXOX",
"OXOXOXOXOXOXoXM.j.1.1.l.j.3.f.f.f.2.d.2.d.-.-.M.|.OXOXOXOXOXOXOX",
"OX+X+X+XOX!.i.%.l.1.3.1.f.p.f.f.g.d.d.i.d.d.f.w.-.^.OXOX+X+X+XOX",
"OXOXOXOXN.<.A.H.D.G.F.c.V.c.V.c.g.m.V.m.C.m.G.G.h.-.K.OXOXOXOXOX",
"OXOXOXS.g.k.k.G.L.L.G.J.D.V.V.D.H.S.H.G.L.L.L.G.j.g.f.G.OXOX+XOX",
"OX.Xd.g.g.k.G.I./.J.P.J.C.B.B.V.i.V.P.L.P.P.P.H.L.k.A.k.).OXOXOX",
"OX~.g.g.A.S.U..././.P./.B.q.B.C.S.L.N.P.L.Y.P.P.Y.G.<.2.r.OXOXOX",
"}.g.A.A.V.c.Y.@.P.P.J.H.q.n.v.C.J.j.p.i.d.C.H.G.d.O.f.<.$.^.+XOX",
").g.A.A.S.F.D.P.S.S.G.d.>.n.+.v.B.j.w.a.V.,.f.3.j.J.E : 7 r K.OX",
"-.2.S.S.F.D.D.H.H.g.;.Y U O.a.=.=.Z 6 1 < N ' w.s >.2 .   o u OX",
"&.2.A.S.H.D.D.J.H.D.>.;.h =.C.C #       o j y K i.= @ o o = v OX",
"&.g.A.A.F.J.J.G.D.H.<.G F =.p + @ o     o a | L ( -.f @ @ % v }.",
"K.2.3.3.D.J.J.J.j.-.1.Y ,.n.5 & & @ O O % i ) v f.- 2 f O = 7 T.",
"^.$.2.g.z.A.z.f.<.>.} } ;.n.T 2 = % & @ % ; D D *.. X 7 d f r Q.",
"OX$.` $.2.3.&.{ { } ;.;.G n.C.V 4 - & & ; f o.j.= $ X S ` , [ A ",
"OX}.:.:.f.1.U #.J _ c _ c e.B.a.a.+.7.#.p.n =.w.+ $ - 5 Z _ =._ ",
"OXXX{ } >.p.O.O.[ ! ^ c.V.n.q.#.q.j a.D 3 v ~ #.+ - w * U :.6.`.",
"OX+XW.} O.:.z 0 9 I x =.' =...P X.a.+.C.C.s./ u.d < / 7.i.Q.+XOX",
"OXOXOX+.} o.p.k g g v s n 8 u v s l g ] s.8./ ) n.C.i.h.<.!.OXOX",
"OXOXOXOXa.p.n.P ) 3 u.S M B %.( > t 9 ] %.#.s.+.C.f.j.s.} i.oXOX",
"OXOXOXOXOXY.k.n.N 8 Z L.J.<.3.s.> > l [ H.a.n.u.p.x.B./ 0.R _.OX",
"OX+XOXOXOXOX^.j.k t ] >.J.S.c.j.e q v C T j.v.R @.Q 7.R 5.4.I.OX",
"OX+X+X+XOX+X+XOXv.` %.1.f.S.j.c.t q S y.!.d W e.^.m U.Z.E.Z.b .X",
"OXOXOXOXOXOXOXOXOXb.A >.<.f.D.f.s.8 0 H Z.5.R t.{.q s R Z.9.a OX",
"OXOXOXOXOXOXOXOXOXOXM.A { f.S.V.f.X.k L b r.n ( R y b @.R ..t.OX",
"OXOXOXOXOXOXOXOXOXOXOXOXR.,.3.j.h.V.a.C.N.C.n.X.| w K / ) ) .XOX",
"OXOXOXOXOXOXOXOXOXOXOXOXOXOXw.f.x.V.V.n.v.V.H.s.,.^ / | o.[ [.OX",
"OX+X+X+X+X+X+XoXOX+XOX.X+XOX.XI.{ f.c.m.G.V.V.h.f.#.| q.q.[  XOX",
"OXOXOXOXOXOXOXOXOXOXOXOXOXOXOXOXOX'.m.%.k.V.p.f.u.X. .#.*.} }.OX",
"OXOXOXOXOXOXOX+XOXOX+X+XOXOX+XOXOXOXOXXXU.(.,.i.x.x.=.=.=.!..XOX",
"OXOXOXOXOXOXOXOXOXOXOXOXOXOXOXOXOXOXOXOXOXOXOXOX'.~.T.OXOXOXOXOX"
};
