/* XPM */
static char *_643504514889[] = {
/* columns rows colors chars-per-pixel */
"32 32 131 2 ",
"   c #3E2723",
".  c #3F2823",
"X  c #3F2824",
"o  c #63281B",
"O  c #642B1C",
"+  c #6A2A1A",
"@  c #762917",
"#  c #702D1A",
"$  c #7C2F1B",
"%  c #402723",
"&  c #442722",
"*  c #4A2720",
"=  c #412823",
"-  c #472923",
";  c #422A26",
":  c #422B26",
">  c #462B26",
",  c #442C27",
"<  c #4E2A21",
"1  c #4C2A23",
"2  c #472F29",
"3  c #482F29",
"4  c #482F2A",
"5  c #502C23",
"6  c #582E23",
"7  c #4A312B",
"8  c #4D342E",
"9  c #4E342E",
"0  c #4F342E",
"q  c #4F352F",
"w  c #5E3226",
"e  c #54322A",
"r  c #50342D",
"t  c #50352E",
"y  c #56362D",
"u  c #5A362D",
"i  c #513730",
"p  c #533830",
"a  c #543831",
"s  c #563A32",
"d  c #563B33",
"f  c #573B33",
"g  c #583C34",
"h  c #5C3F37",
"j  c #663326",
"k  c #6B3223",
"l  c #6B3225",
"z  c #64392D",
"x  c #6F3829",
"c  c #6C3A2C",
"v  c #773523",
"b  c #753928",
"n  c #5D4037",
"m  c #5F4138",
"M  c #6E4235",
"N  c #62433A",
"B  c #63443B",
"V  c #64453B",
"C  c #68483E",
"Z  c #744334",
"A  c #764434",
"S  c #6B4A40",
"D  c #6C4B40",
"F  c #6D4C41",
"G  c #812D16",
"H  c #8D3015",
"J  c #963214",
"K  c #9D3212",
"L  c #9A3517",
"P  c #983619",
"I  c #B42B0A",
"U  c #B72E0C",
"Y  c #B92E0C",
"T  c #BF360C",
"R  c #AD2F10",
"E  c #A63513",
"W  c #AD3510",
"Q  c #A93816",
"!  c #AF3C18",
"~  c #A83D1C",
"^  c #833823",
"/  c #883B24",
"(  c #8D3B25",
")  c #803C28",
"_  c #853F2A",
"`  c #993E23",
"'  c #CA2C04",
"]  c #D62E03",
"[  c #D82E02",
"{  c #DD2D00",
"}  c #CC3207",
"|  c #C2350B",
" . c #C0360C",
".. c #C83308",
"X. c #CD320B",
"o. c #C73A0F",
"O. c #D23004",
"+. c #D93408",
"@. c #E43407",
"#. c #E63E0F",
"$. c #EA3D0D",
"%. c #90452D",
"&. c #97482F",
"*. c #9C492F",
"=. c #8D4731",
"-. c #8E4630",
";. c #B44422",
":. c #B54827",
">. c #B94927",
",. c #D44113",
"<. c #D04115",
"1. c #DB4415",
"2. c #E24616",
"3. c #E94C1A",
"4. c #EC4D1B",
"5. c #EA4E1E",
"6. c #F4511E",
"7. c #F9501C",
"8. c #FA531F",
"9. c #C54922",
"0. c #C14924",
"q. c #C54C26",
"w. c #CC4821",
"e. c #CE4A20",
"r. c #CC4A22",
"t. c #DD4E20",
"y. c #F75523",
"u. c #F75623",
"i. c #FB5622",
"p. c #FE5622",
"a. c #FF5722",
/* pixels */
"      X X X   X     X X     X       g g n n n n < i.. ;         ",
"= k w 7 7 8 ; 8 8 0 8 8 ; ; ; ; , 2 g m n n n A t.{ n f , ;     ",
"- 9.;.  ; r 8 8 0 8 0 0 8 8 8 i g n m m h Z *.r.o.$.n n n 8 ;   ",
"  k ;.  2 t 8 t 8 0 0 0 8 8 8 i g n n n h &.p.,.T p.n n n n ,   ",
"- E P   g V V V V V V 8 , X - ; 7 8 i 2 8 M =.! O.-.n n n 8 ; . ",
"1 3.H   m F F F F F F C V X X   X ;       ; ; J [ n g ; , .   . ",
"* ] H % ; V F F F F F 2 X p.r.  . 7 0 0 8 0 0 R j 8 7 .       . ",
"* @.2.T O m F F F F 8 8 8 7.w.0 8 t 0 0 t 0 8 2 7 8         . C ",
"& Y O. .O   m h B B 8 t _ { U 0 8 8 8 8 p 8 2 2 3 3 2       3 F ",
"% k O. .O     ; 8 8 0 t u.{ U 0 t t 8 8 m n m n n m g       V C ",
"; b #.O.+   X X 2 ; 2 0 <.} U 8 8 8 g g n n n n n n g     8 C F ",
"  t b k e X X X     ;   5.| I ; ; ; g n n n n n n n ; .   m F F ",
"  8 0 8 0     g f n n g u.u.K .   f g m n n n n n m g p   g F - ",
"; 8 0 0 8   h m n m n n   5.K , f f n h n n n n n g f     h S ; ",
"  i 0 0 8 8 h m n n n n ; < Q X     g n m n n n f         g 8   ",
"X 8 0 0 8 g m g n n n n   1 :.  - , h n m f f f ; . . %   p 2   ",
"; t 8 t 8 g n n n n h h   , A ; 8 f h n m i 2 ; X     2 X ; ;   ",
"  , 8 8 8 n n n n h m g X N V X 2 2 , 2 2 ;         2 0         ",
"  ; 8 8 8 i n n n n 8 N S S F V 2   .             8 8 3         ",
"      . % ; f n h h 8 N S S F F S 8           N F F t 3         ",
"    t h n ; . = 6   = = ; - V V B C - X X 8 F F F F 0 8 ; ;     ",
"  8 n h n ,   ` 0., 7 8 0 0 8 8 8 8 0   X 8 F F F C 0 t 8 ;     ",
"; n n n n , ; a.q.8 8 8 t t 8 8 t t 0     8 F F F F 8 8 8 ;     ",
"= n n n n , = 7.~ 8 t 8 8 8 t t 8 t 0 2   ; 8 N F g t 8 8 ;     ",
"; h h n n , . 6.L t 8 t f g g g 8 0 r r     X - 3 8 0 0 0 ; X X ",
"  ; f f n , i.T ..[ @ 8 h h n n m m g t 8         t 0 0 8 0 X   ",
"8 t 0 0 t X.W ' { @./ n m n n n m h h 8     ; 5 W r r 0 8 8 ; X ",
"7 8 0 0 8 >.8 6 1.4.%.n h h n n h m h 3   < v r.o.3   t 8 8 ; X ",
"  0 0 0 8 8 t c 4.| b n n n n n n n n .   ^ p.o.T % ; 8 8 8 ; ; ",
"  2 0 0 t 8 8 u / + c B n n n n n n n     $ $.+.G     ; ; , X   ",
"  X ; ; 7 0 t 0 8 7 f m n n m n n n n     * o o & X             ",
"          ;   ; 8 8 8 8 n X   2 f m ;                           "
};
