/* XPM */
static char *_643501757578[] = {
/* columns rows colors chars-per-pixel */
"32 32 204 2 ",
"   c #2C2D1E",
".  c #38261C",
"X  c #3A2A1E",
"o  c #262626",
"O  c #2C2525",
"+  c #2D2A27",
"@  c #2C2729",
"#  c #25292C",
"$  c #2B2A2A",
"%  c #332B25",
"&  c #3F2D23",
"*  c #342E2C",
"=  c #363128",
"-  c #3A322B",
";  c #2C2A30",
":  c #333233",
">  c #393636",
",  c #353339",
"<  c #393638",
"1  c #3D3B3D",
"2  c #5F3106",
"3  c #432B1C",
"4  c #483518",
"5  c #57371B",
"6  c #422B29",
"7  c #473427",
"8  c #453C2B",
"9  c #56392B",
"0  c #433A32",
"q  c #493E32",
"w  c #493B35",
"e  c #443E3B",
"r  c #4C4009",
"t  c #69531A",
"y  c #4F422B",
"u  c #51422B",
"i  c #46423B",
"p  c #4A463A",
"a  c #534436",
"s  c #594B3B",
"d  c #5F5635",
"f  c #664D2A",
"g  c #754C2C",
"h  c #6A5325",
"j  c #624931",
"k  c #694E3B",
"l  c #744F36",
"z  c #6C573A",
"x  c #79533B",
"c  c #7D662E",
"v  c #796238",
"b  c #444344",
"n  c #4D4A4B",
"m  c #554E46",
"M  c #5A5445",
"N  c #55514B",
"B  c #5D534B",
"V  c #525152",
"C  c #5E5952",
"Z  c #5D5B5A",
"A  c #665845",
"S  c #615548",
"D  c #775D40",
"F  c #6B614F",
"G  c #786947",
"H  c #6E6A5F",
"J  c #696664",
"K  c #716C6A",
"L  c #75786C",
"P  c #737373",
"I  c #7C7A73",
"U  c #797979",
"Y  c #86451D",
"T  c #8D5811",
"R  c #88671C",
"E  c #AA7317",
"W  c #85562E",
"Q  c #925B21",
"!  c #915E2C",
"~  c #895A37",
"^  c #985E32",
"/  c #9C5E3D",
"(  c #9D7028",
")  c #896530",
"_  c #9E7B34",
"`  c #AD722E",
"'  c #BF7F28",
"]  c #A76A38",
"[  c #A67C36",
"{  c #B67836",
"}  c #C06B28",
"|  c #815F46",
" . c #906F49",
".. c #906C4B",
"X. c #A26B43",
"o. c #BB8B2E",
"O. c #BE9A2B",
"+. c #A88738",
"@. c #B98336",
"#. c #B1923B",
"$. c #D48A1B",
"%. c #C48E27",
"&. c #D48C2A",
"*. c #DC9A28",
"=. c #DC8937",
"-. c #C19C33",
";. c #DBA823",
":. c #C9A236",
">. c #D7A535",
",. c #E8A527",
"<. c #E6AD2C",
"1. c #F6A22D",
"2. c #EBB728",
"3. c #F9B526",
"4. c #F5BE2D",
"5. c #FDBF2B",
"6. c #E5AC3D",
"7. c #E3B031",
"8. c #F5B831",
"9. c #FFC40A",
"0. c #F5C313",
"q. c #FCC516",
"w. c #F4C21B",
"e. c #FCC41B",
"r. c #EDC123",
"t. c #F3C220",
"y. c #FCC425",
"u. c #F2CB29",
"i. c #EEC137",
"p. c #F5C436",
"a. c #AC864C",
"s. c #BFA04B",
"d. c #D68543",
"f. c #D28845",
"g. c #CD9044",
"h. c #D19943",
"j. c #D09051",
"k. c #C9AA45",
"l. c #D9A052",
"z. c #ECA848",
"x. c #F2BF47",
"c. c #D8BA67",
"v. c #CFB677",
"b. c #EBCF47",
"n. c #F6CA47",
"m. c #F6D14D",
"M. c #EECA57",
"N. c #F3CD52",
"B. c #F2D055",
"V. c #DFC36F",
"C. c #EBCF60",
"Z. c #EBCC6C",
"A. c #EACD79",
"S. c #F6D870",
"D. c #888583",
"F. c #8E8E8D",
"G. c #908F90",
"H. c #8F9190",
"J. c #9A9493",
"K. c gray64",
"L. c #ABABAB",
"P. c #AFAFB0",
"I. c #B4B4B4",
"U. c #BAB6B2",
"Y. c #BEBEBE",
"T. c #EEDA84",
"R. c #E9D08C",
"E. c #E6CF9C",
"W. c #F8E18B",
"Q. c #F2DFA1",
"!. c #EADDB0",
"~. c #EDE0A0",
"^. c #F6E5A7",
"/. c #FCECAC",
"(. c #EAE5B9",
"). c #F1E6B2",
"_. c #F8EABA",
"`. c #FAF1BC",
"'. c #BEBEC1",
"]. c #C4C4C4",
"[. c #CBCACA",
"{. c #D5D5D4",
"}. c #D8D6D5",
"|. c #DCDCDC",
" X c #E1DEDC",
".X c #EDEACC",
"XX c #F5EEC9",
"oX c None",
"OX c #E9E7D5",
"+X c #F6F3D7",
"@X c #FDFAD2",
"#X c #FAF5DA",
"$X c #E3E2E3",
"%X c #ECE9E0",
"&X c #ECECEC",
"*X c #FCF6E2",
"=X c None",
"-X c None",
";X c None",
":X c #F4F4F4",
">X c None",
",X c #F6FCF2",
"<X c #FCFCF4",
"1X c None",
/* pixels */
"1X1X1X1X1X1X1X1X1X<X<X1X1X1X1X;X!.XX1X1X1X1X<X1X1X1X1X1X1X1X1X1X",
"1X1X1X1X1X1X1X1X1X;XXX1X1X1X<X_.Z.(.<X1X1X1X1X1X1X1X1X1X1X1X1X1X",
"1X1X1X1X1X1X1X1X1X<X;X1X1X1X;X^.T.+X1X1X>X=X<X1X1X1X1X1X1X1X1X1X",
"1X1X1X1X1X1X1X1X1X1X1X1X1X1X<X-X-X1X1X1X<X(.:X>X1X1X1X1X1X1X1X1X",
"1X1X1X1X1X1X1X1X1X1X1XoXE.<X1X1X1X1X1X1X<X1X<X1X1X1X1X1X1X1X1X1X",
"1X1X1X1X1X1X1X1X1X,X<XC.S.<X1X<X<X1X<X1X@X*X1X1X1X1X1X1X1X1X1X1X",
"1X1X1X1X1X1X1X1X1X1X<XB.B..X1X<X.X%X<X<X#X=X1X1X1X1X1X1X1X1X1X1X",
"1X1X1X1X1X1X1X1X1X1X;Xb.u.).1X<X-X<X1X<X<X<X<X1X1X1X1X1X1X1X1X1X",
"1X1X1X1X1X1X1X1X1XZ %X`.Z.XX,X#X#X*X;X<X-X1X<X>X1X1X1X1X1X1X1X1X",
"1X1X1X1X1X1X1X1X$X1 Z }.OXoXW.S.p.m./.#X.X1X:XL.I.1X1X1X1X1X1X1X",
"1X1X1X1X1X1X1X<XI G [ v.v.k.w.e.e.e.m.T.).L P : J 1X1X1X1X1X1X1X",
"1X1X1X1X1X1X|.P @ h 5.y.t.t.e.q.q.2.r.w.p.r p B J :X1X1X1X1X1X1X",
"1X1X<X-X1X1XU + & { e.e.9.e.u.h.;.O.t :.e.w.c.A p J.:X1X1X1X*X<X",
"1X<X-XOX-X<XF.p k d.6.q.2.<.i.[ c +.) h ;.y.4.s.G Z L.&X<X=X(.#X",
"1X1X=X=X<X1X|.J m f.2.0.@.) n.-.d d t 8 _ 5.g.f ..C b I.1X;X=X<X",
"W.;X<X<X<X1XD.8 % g ,.y.,.$.7.#.u = $ ; 4 x.8.] S e i L.1X<X<X1X",
"B.@X<X;X:X].n o @ 8 @.E u.<.o._ 7 z u % v T <.l s m H.1X1X1X,X-X",
"oX=X#X_.$X..$ @ @ i f j.o.*.8.#.y   p f 9 R z.x m O ..&X1X1X`.A.",
"<X<X/.N.T...6 + # + B | ] &.3.<.:.+.v a.h l.W 8 + $ b I.<X;XXX^.",
"#X=X/.%.t Y A > # # w B / =.} Q k.8.2.b.z.d.X N + @ . ..V.A.XX,X",
"#X#X/.>.( g y * 1 ; < C : a ] =.%.*.5.3.1.! i $ $ @ . ^ 6.i.~.<X",
"1X;XR.E ! & + 1 ].n * a N m 9 ~ ` *.&.[ ..6 H $ @ + X g h.Z.#X<X",
"<XoXM.o.5 - - F.&X].7 x ..V S * u @.X.e 0 B n b @ @ 8 5 T V.*X1X",
"-XZ.*.2 8 e * Y.1X<XJ.3 4 8 F M 9 ^ j - N C {.V $ + % . Q >.~.1X",
";XE.Y 5 w @ J |.1X1X{.N D S n w a.X.a K Y.1X1X{.1 $ + a [ >.Q.1X",
"1X X- q @ @ 1 ].1X1X1X|.O : n > | k b G.:X1X1X}.> @ @ 8 X.^  X1X",
">X XO @ : b 1 '.1X1X1X&Xo : 1 > - - , |.1X1X1X}.> $ + p ~ l  X<X",
"1X XO @ 1 Z L.:X1X1X1X&Xo $ $ $ $ $ # }.1X1X1X{.< # o   N U.>X1X",
"1X>X]., < G.&X1X1X1X1X&X# # V I.F.$ : |.1X1X1X$XU U V + @ ].1X1X",
"1X1X<X].U K.&X>X1X1X1XL.$ P :X1XF.# > |.1X1X1X1X:XL.b @ Z |.1X1X",
"1X1X1X1X>X1X1X1X1X1X1Xb 1 K.1X>X{.Z : |.1X1X1X1X:X[.P.P.|.1X1X1X",
"1X1X1X1X1X1X1X1X1X1X,Xb b Y.1X1X<XP # |.1X1X1X1X1X1X1X1X1X1X1X1X"
};
