/* XPM */
static char *_643501752298[] = {
/* columns rows colors chars-per-pixel */
"32 32 214 2 ",
"   c #2F291D",
".  c #3C2E1D",
"X  c None",
"o  c #2C2A25",
"O  c #292829",
"+  c #2B2A2A",
"@  c #372825",
"#  c #342A24",
"$  c #352E2C",
"%  c #29312C",
"&  c #3B3123",
"*  c #33322C",
"=  c #3C342B",
"-  c #2F2D30",
";  c #382D30",
":  c #343433",
">  c #393533",
",  c #37363A",
"<  c #3A393B",
"1  c #4B2E19",
"2  c #423219",
"3  c #402C26",
"4  c #443526",
"5  c #44392B",
"6  c #533C27",
"7  c #423B34",
"8  c #483B35",
"9  c #633A23",
"0  c #3E4033",
"q  c #6A4116",
"w  c #7F4019",
"e  c #725517",
"r  c #5B422C",
"t  c #4C4234",
"y  c #43413A",
"u  c #474539",
"i  c #4C453D",
"p  c #534433",
"a  c #5A4637",
"s  c #554B33",
"d  c #53503C",
"f  c #65482D",
"g  c #774A24",
"h  c #70582E",
"j  c #614635",
"k  c #694C38",
"l  c #6A573E",
"z  c #785638",
"x  c #79642A",
"c  c #7A6136",
"v  c #403C42",
"b  c #454445",
"n  c #4C4643",
"m  c #454549",
"M  c #4C4C4C",
"N  c #514B43",
"B  c #5A5141",
"V  c #5B554C",
"C  c #524C50",
"Z  c #5B5754",
"A  c #5F5F5D",
"S  c #645948",
"D  c #765A45",
"F  c #675F52",
"G  c #67604D",
"H  c #776646",
"J  c #686255",
"K  c #736954",
"L  c #7C6F5B",
"P  c #646464",
"I  c #6B6B69",
"U  c #7C7769",
"Y  c #777776",
"T  c #7D7B7D",
"R  c #91661B",
"E  c #A4731E",
"W  c #824D2B",
"Q  c #825527",
"!  c #915729",
"~  c #8A5B38",
"^  c #9D5F3F",
"/  c #8B6220",
"(  c #93642B",
")  c #937626",
"_  c #9A633E",
"`  c #8E7539",
"'  c #B77828",
"]  c #A77032",
"[  c #B97738",
"{  c #C67934",
"}  c #925D44",
"|  c #8F7443",
" . c #936F50",
".. c #A06A41",
"X. c #A3774A",
"o. c #B37848",
"O. c #807F71",
"+. c #C27E47",
"@. c #AC8638",
"#. c #B48C30",
"$. c #B38F3C",
"%. c #CD832B",
"&. c #C98538",
"*. c #D7803A",
"=. c #D89B3B",
"-. c #E19E29",
";. c #E48E31",
":. c #E19535",
">. c #DAA92C",
",. c #DFB42F",
"<. c #CDA53F",
"1. c #D7A837",
"2. c #DFB432",
"3. c #F9BD26",
"4. c #E4A838",
"5. c #F7AB34",
"6. c #E8B538",
"7. c #F7B836",
"8. c #FCC606",
"9. c #FBC414",
"0. c #F6C31A",
"q. c #FCC51C",
"w. c #FDC819",
"e. c #EDC12E",
"r. c #F6C121",
"t. c #F5C42C",
"y. c #FAC52A",
"u. c #EDC134",
"i. c #F6C634",
"p. c #B18D4B",
"a. c #908061",
"s. c #918B79",
"d. c #BE9F62",
"f. c #C98948",
"g. c #DA9944",
"h. c #C4985A",
"j. c #D7A845",
"k. c #D9B248",
"l. c #E6A947",
"z. c #E6B745",
"x. c #E5AF57",
"c. c #E4BB5A",
"v. c #C3AB79",
"b. c #ECC445",
"n. c #F3C745",
"m. c #EAC459",
"M. c #E8C75A",
"N. c #ECD158",
"B. c #F3D555",
"V. c #D9C16E",
"C. c #E7C96A",
"Z. c #F5D369",
"A. c #EFD379",
"S. c #EBD37F",
"D. c #828283",
"F. c #898883",
"G. c #8C8B8B",
"H. c #908F8F",
"J. c #9C978B",
"K. c #939393",
"L. c #9D9D9B",
"P. c #A09B92",
"I. c #A4A39F",
"U. c #A3A3A4",
"Y. c #AAAAAA",
"T. c #B3B6AD",
"R. c #B5B6B3",
"E. c #BBBCBB",
"W. c #DACC92",
"Q. c #E8D48E",
"!. c #F3D985",
"~. c #E6CE92",
"^. c #F2DF98",
"/. c #F9E68A",
"(. c #F4E39A",
"). c #C2C1BF",
"_. c None",
"`. c #EDE2A8",
"'. c #F4E7A9",
"]. c #EDE0BC",
"[. c #F7EAB8",
"{. c #F4ECBC",
"}. c #FEF3B8",
"|. c #C3C3C2",
" X c #D3D3D3",
".X c #DEDDDC",
"XX c #E2DFDE",
"oX c None",
"OX c #F1E9C4",
"+X c #FCF3C5",
"@X c #FBF5C7",
"#X c #FDF4CC",
"$X c #E9E4D8",
"%X c #F5EDD4",
"&X c #F0EFDC",
"*X c #F3F2D5",
"=X c #F9F4D5",
"-X c #FBF5DB",
";X c #FFFADC",
":X c #E5E5E5",
">X c #E6EBE6",
",X c #E9E9E4",
"<X c #ECECEC",
"1X c #F1EDEC",
"2X c None",
"3X c #FCFAE3",
"4X c None",
"5X c #FCFAED",
"6X c #F0EFF1",
"7X c None",
"8X c None",
"9X c None",
"0X c #F7FBF9",
"qX c None",
/* pixels */
"qXqXqXqXqXqXqXqXqXqXqXqXqX*X`.5X0XqX0XqX5X5XqXqX9XqXqXqX9XqXqXqX",
"qXqXqXqXqXqXqXqXqXqXqXqXqX4X%X9X8X%XOX5XqXqX5X8X&X9XqXqXqXqXqXqX",
"qXqXqXqXqXqXqXqX0X5X9XqXqXqX9X9X%XZ.c.-XqXqXqX4X%X9XqXqXqXqXqXqX",
"qXqXqXqXqXqXqXqX5XoX9X9X0XqX0X5X(.i.b.*X0X0XqXqX9XqXqXqXqXqXqXqX",
"qXqXqXqXqXqXqXqXqX9X9XQ.Q.2X0X-XA.y.b.=X5X_.5XqXqXqXqXqXqXqXqXqX",
"qXqXqXqXqXqXqXqXqXqX3XC.i.!.3X9X#X(.^.4X9X9XqXqXqXqXqXqXqXqXqXqX",
"qXqXqXqXqXqXqXqX0XK.5X'.i.n.'.0X9X5X9X9XqX0XqXqXqXqXqXqXqXqXqXqX",
"qXqXqXqXqXqXqXqXqXb T.S.w.w.B./.(.-X9X5X3X9XqXqX0X0XqXqXqXqXqXqX",
"qXqXqXqXqXqXqXqXR.< p m.w.8.9.9.y.B./.N.u.(.,X.XK.Y.qXqXqXqXqXqX",
"qXqXqXqXqXqX<X).n h 1.t.9.w.w.9.9.9.y.y.0.c.S J N R.qXqXqXqXqXqX",
"qXqXqXqXqXqXU.M & e 3.q.9.w.9.i.y.y.E 2.0.u.` K K G.>XqXqXqXqXqX",
"qX9X9XqXqXqXO.Z k ' 9.9.9.w.t.#.) u.e e ,.9.3.k.p.N L.9X9X9X9X9X",
"9X2X_.5X9XqXH.8 j &.7.0.q.3.0.p.s @.V.u d.r.z.l.=.H N K.7X;XW.4X",
"qX9X9XqXqXqX|.O.j [ -.9.>.@.u.6.c t l n 4 <.' Q [ H y < E.'.C.4X",
"qX0X0X9X9X0XF.8 = Q 5.3.=.] b.$.s s = % . ( 4.{ W S 0 T $XQ.`.4X",
"+X;X9X%X{.J., O O & h./ 7.>.E X.  a.L * d v.R { j s = U.0X4X5X0X",
"b.C.#X`.`.s.# o + O 1 f.j.R =.k.`     X # 2 z.' 2 o D.1X0X0XqXqX",
"!.Z.}.S.d.| a $ O X i z f.R ;.4.1.) x h f q &.9 V $ + J.0X9X;X[.",
"3X#X}.z.@.X.z & + + 7 i ~ [ { E #.6.e.u.4.%.] i : *    ._.5X+XB.",
"qX0X[.j.#.! r 7 - + 8 U . 6 ..*.;.7.y.y.7.%.f $ O O @ ! h.].+Xm.",
"9X9X(.7.' 1 @ + v v ; N F J 7 } { 4.7.+.+.j t O % O o _ g.[.3X-X",
"qX-XM.-.g 8 > Z .X6XS z L V V # 8 p.g.6 # B G O + X y r ! ~.+XoX",
"qX=Xx.' 9 > X Y.7X7XF f ~ N F n p p.o.t 8 T Y b + + * 5 _ x.+X8X",
"qX$X_ _ 3 ; < E.qXqXE.3 z G C v c f.~ S P.<X7X|.+ + o t ..l.+XqX",
"0X$X. 6 y o O Y.7XqXqX<X+ > m : D ~ > F >XqXqX X+ + o   } w oXqX",
"9X.X* 7 X M b Y.0XqX9X<X+ - m < ; ; O ).0XqXqX X+ + o i ~ } $X0X",
"qX.XO O + G.G.|.qXqXqX<X+ O O + X O + E.qXqXqX X+ + + = s J.1X9X",
"qX:X> O O G..X7XqXqXqX6XO + : D.L.< O E.qXqXqX XM I m + o |.qXqX",
"qXqX:XK.P b G.:XqXqXqX<XO , H.<XG., O |.qXqXqX<XG.M < + I .X9XqX",
"qXqXqXqXqX0XqXqXqXqXqX<XO P 7X|.M O Y <XqXqXqXqX XY Y D. X9XqXqX",
"qXqXqXqXqXqXqX0XqXqXqX<X- P 7X XL.Y.<XqXqXqXqXqXqXqXqXqXqXqXqXqX",
"qXqXqXqXqXqXqXqXqXqXqX<XO A 7X0X0X0XqXqXqXqXqXqXqXqXqXqXqXqXqXqX"
};
