/* XPM */
static char *_643501747676[] = {
/* columns rows colors chars-per-pixel */
"32 32 209 2 ",
"   c #2F291D",
".  c #392718",
"X  c None",
"o  c #272726",
"O  c #2B2623",
"+  c #2B2A26",
"@  c #29272A",
"#  c #272C28",
"$  c #2B2A2B",
"%  c #312A20",
"&  c #372821",
"*  c #322C2B",
"=  c #3D3325",
"-  c #34322C",
";  c #3A3128",
":  c #3A382C",
">  c #2E2F31",
",  c #362E31",
"<  c #343334",
"1  c #3B3535",
"2  c #3D3932",
"3  c #3A3A3C",
"4  c #4B2D17",
"5  c #4C3212",
"6  c #402E25",
"7  c #433826",
"8  c #40362C",
"9  c #493B2B",
"0  c #573C28",
"q  c #433B33",
"w  c #483936",
"e  c #58411B",
"r  c #7D580D",
"t  c #74651C",
"y  c #4A4025",
"u  c #594B28",
"i  c #4F4533",
"p  c #464338",
"a  c #4B433C",
"s  c #594837",
"d  c #524C3C",
"f  c #6B4D2D",
"g  c #754B27",
"h  c #74582F",
"j  c #634936",
"k  c #665539",
"l  c #73573A",
"z  c #79663C",
"x  c None",
"c  c #3F4040",
"v  c #434143",
"b  c #484745",
"n  c #4C4B4B",
"m  c #544B45",
"M  c #595445",
"N  c #565754",
"B  c #5C5C5C",
"V  c #645B4B",
"C  c #705340",
"Z  c #68604E",
"A  c #696354",
"S  c #726754",
"D  c #656565",
"F  c #676A69",
"G  c #6A6A6A",
"H  c #766F60",
"J  c #6D7371",
"K  c #757575",
"L  c #7A7B7A",
"P  c #83421B",
"I  c #A96C1C",
"U  c #B57C1B",
"Y  c #855634",
"T  c #8D5330",
"R  c #8A5C34",
"E  c #916C29",
"W  c #836830",
"Q  c #9A6032",
"!  c #957739",
"~  c #AB642D",
"^  c #AC7B2E",
"/  c #A96D32",
"(  c #B97F31",
")  c #C8792C",
"_  c #935D42",
"`  c #866443",
"'  c #986447",
"]  c #9F7041",
"[  c #8F6F52",
"{  c #B57B49",
"}  c #817F7F",
"|  c #B18B14",
" . c #A98536",
".. c #BA9230",
"X. c #C48516",
"o. c #CA8527",
"O. c #D08323",
"+. c #CB902F",
"@. c #CF8A35",
"#. c #D89733",
"$. c #EB8F24",
"%. c #CBAD3B",
"&. c #DFB030",
"*. c #E1AF2F",
"=. c #EBB924",
"-. c #F9B929",
";. c #E4A538",
":. c #E9B735",
">. c #EDB539",
",. c #F1B636",
"<. c #F6BD37",
"1. c #FBC70B",
"2. c #F7C317",
"3. c #FCC514",
"4. c #F9C812",
"5. c #F5C31C",
"6. c #FBC41A",
"7. c #EFC829",
"8. c #FCC422",
"9. c #F3C32C",
"0. c #F6C82A",
"q. c #EEC43E",
"w. c #F8C535",
"e. c #F7C23D",
"r. c #9B8258",
"t. c #AA8343",
"y. c #B88448",
"u. c #B89847",
"i. c #B99758",
"p. c #9C8F6C",
"a. c #968D7A",
"s. c #B39B66",
"d. c #C88F45",
"f. c #C99A45",
"g. c #D39A4D",
"h. c #D1A34F",
"j. c #D8AF4B",
"k. c #EDBE42",
"l. c #E7B54E",
"z. c #F5BE49",
"x. c #E6B154",
"c. c #DDBD62",
"v. c #C4B277",
"b. c #F1C846",
"n. c #EAC85A",
"m. c #F0CE5D",
"M. c #F9D25C",
"N. c #D9C676",
"B. c #ECCB62",
"V. c #E9CA6A",
"C. c #F7D565",
"Z. c #EAD27E",
"A. c #F4D972",
"S. c #838383",
"D. c #8C8A8A",
"F. c #939393",
"G. c #9F9F9F",
"H. c #AAA698",
"J. c #A5A5A3",
"K. c #ACACAD",
"L. c #B2ADAD",
"P. c #B7B7B5",
"I. c #BFBDB7",
"U. c #BFBDBF",
"Y. c #EBD48A",
"T. c #F0DB8B",
"R. c #E7D796",
"E. c #F8E585",
"W. c #F5E499",
"Q. c #FFF09D",
"!. c #DAD5A1",
"~. c #E4DAA9",
"^. c #E3DEB5",
"/. c #EBE2AD",
"(. c #F7E9A8",
"). c #F7E7B8",
"_. c #F9F1BC",
"`. c #C4C3C3",
"'. c #C7C9C9",
"]. c #D4D4D3",
"[. c #DDDDDC",
"{. c #E7DFC9",
"}. c #E2DCDB",
"|. c #DFE0DD",
" X c None",
".X c None",
"XX c None",
"oX c None",
"OX c None",
"+X c None",
"@X c None",
"#X c None",
"$X c None",
"%X c None",
"&X c None",
"*X c None",
"=X c None",
"-X c None",
";X c None",
":X c None",
">X c None",
",X c None",
"<X c None",
"1X c None",
"2X c None",
"3X c None",
"4X c None",
"5X c None",
"6X c None",
/* pixels */
"6X6X6X6X6X6X6X6X6X6X6X6X6X6X6X4X%X#X<X6X4X4X6X4X6X6X6X6X6X6X6X6X",
"6X6X6X6X6X6X6X6X6X6X6X6X6X6X6X6X6X5X4X6X6X>X&X4X6X6X6X6X6X6X6X6X",
"6X6X6X6X6X6X6X6X6X6X4X4X6X<X6X4X4X6X3X_.&X4X4X4X6X6X6X6X6X6X6X6X",
"6X6X6X6X6X6X6X6X6X6X4X4X>XXX4X6X6X6X*XM.E.<X5X6X6X6X6X6X6X6X6X6X",
"6X6X6X6X6X6X6X6X6X6X4X!.,X4X4X6X6X5X*XM.b.#X6X6X6X6X6X6X6X6X6X6X",
"6X6X6X6X6X6X6X6X6X6X4X^.:X6X6X4X,X*X,X(.V.,X4X6X6X6X6X6X6X6X6X6X",
"6X6X6X6X6X6X6X6X6X6X6X5X4X6X4X_.A.C._.>XXX<X%X:X6X6X6X6X6X6X6X6X",
"6X6X6X6X6X6X6X6X6X4XJ 4X6X4X<XW.w.0.m.&X4X:X~.,X6X6X6X6X6X6X6X6X",
"6X6X6X6X6X6X6X6X6XJ.- H.:X#X(.M.6.2.7.(.,X<X:X[.P.6X6X6X6X6X6X6X",
"6X6X6X6X6X6X6X5XU.2 k ! m.b.0.6.4.6.4.w.W.H.a.N D 6X6X6X6X6X6X6X",
"6X6X6X6X6X5X5XK.w   ! <.8.3.6.6.6.1.1.2.e.5 u a D 5X6X6X6X6X6X6X",
"6X>X^.,X4X4XF.1 O . +.3.6.1.6.6.8.2.7.| 5.&.s.d w J.4X6X6X6X6X6X",
"4X<XXX^.<X4XL + A g $.8.3.8.5.,...%.q.t u.4.0.j.S M I.3X6X4X4X6X",
":X4X<X@X3X6X`.N w l ) b.9.f. .k.! h u.! u f.:.E u Z B '.4X>X<X6X",
"%X4X$XY.XX4X5XF S 0 / >.-.#.( e...k s u = l >.^ i a 1 J.<X~.XX4X",
"4X4X.XB.(.6XD.< < & R z.b.=.X.U ..y - + $ * r O.l V D.1X6XR.(.4X",
"5X4X+XZ.).F.* o $ $ w y.l.=.-.>.z   r.d ; f i./ h   D.5X4XR.n.,X",
"6X6X4X,XOXp.7 * @ @ < 0 ] g o.,. .y X p k e 4 Y . + F [.6X>X/.4X",
">X.X,XXXv.t.f ; $ @ * A l ~ @.U |  .t z [ h . w @ O $ a. X$X<X4X",
"$XB.A.Y.W R g 6 $ $ o , ; 0 _ Q I *.=.q.k.) [ + $ @ % _ i.c.$X4X",
"4XQ.9.z.x.Y m 1 3 o > n H & 7 ` g.<.8.-.>.{ s o + + % Y d.x.oX$X",
"6X+Xb.>./ k 9 * `.S.* m 6 x m p 2 ! &.) f & d 1 + $ - 4 I Y.oXV.",
"6X&Xn.#.g ; < L -X5Xm j W S V N * u h.Q * Z } q $ $ w 9 Q Y.$X).",
"5X:Xh./ 0 : $ L.5X5XU.* 0 z V M i t.g.j m L.=XD.o # $ 8 T ;.T.<X",
"6X}.0 ` & @ + P.4X6X6Xb   . m v C y.h a [.6X6X].$ $ + m ' @.N.<X",
"6X[.O ; 2 $ @ K.5X6X6X-X$ < v x d j q D =X6X6X].$ $ $ % h P {.4X",
"6X}.> > o G B K.5X6X6X;X$ $ > < $ $ 1 } 2X6X6X].$ o O p f 4 }.4X",
"6X|.o o $ F.D.`.5X6X6X6X`.$ o 3 1 * x ].6X6X5X[.n F N + a L.5X6X",
"6X1XS.c , B G.=X6X6X6X6X[.3 < L J $ '.6X6X6X6X;XS.b v o 1 `.5X6X",
"6X6X6X1XK.L '.6X6X6X6X6X5XK.< 3 $ B ].6X6X6X6X6X].K L L L.2X5X6X",
"6X6X6X6X6X6X6X6X6X6X6X6X4X].n < B '.6X6X6X6X6X6X6X6X6X6X6X6X6X6X",
"6X6X6X6X6X6X6X6X6X6X6X6X6X[.D $ K =X6X6X6X6X6X6X6X6X6X6X6X6X6X6X"
};
