/* XPM */
static char *_d8dae43d3964a32f26d3da0280e7d51Xuc0gcQERGx6DS7V[] = {
/* columns rows colors chars-per-pixel */
"32 32 156 2 ",
"   c #1B1714",
".  c #1E1B16",
"X  c #1E1D19",
"o  c #360E06",
"O  c #3D0B02",
"+  c #3C0F0A",
"@  c #27160F",
"#  c #2B160D",
"$  c #221A0D",
"%  c #391105",
"&  c #34150D",
"*  c #3C140B",
"=  c #301A0F",
"-  c #3C180F",
";  c #251614",
":  c #2A1714",
">  c #221B16",
",  c #2B1B14",
"<  c #221D1A",
"1  c #2B1D1B",
"2  c #331512",
"3  c #391610",
"4  c #331B15",
"5  c #3C1B14",
"6  c #371718",
"7  c #311D1A",
"8  c #3D1A18",
"9  c #1E211B",
"0  c #272115",
"q  c #2A2017",
"w  c #25221C",
"e  c #29231E",
"r  c #2A291E",
"t  c #382217",
"y  c #33221C",
"u  c #3A221B",
"i  c #30291E",
"p  c #2F1E24",
"a  c #262320",
"s  c #2B2521",
"d  c #272823",
"f  c #2D2923",
"g  c #342422",
"h  c #3B2521",
"j  c #342B26",
"k  c #322D28",
"l  c #382E2C",
"z  c #383127",
"x  c #36322B",
"c  c #39322C",
"v  c #3B3531",
"b  c #450C03",
"n  c #4D0A01",
"m  c #570A00",
"M  c #510E0B",
"N  c #421203",
"B  c #4C1E00",
"V  c #41110C",
"C  c #49150B",
"Z  c #441B0E",
"A  c #4C1A0E",
"S  c #511401",
"D  c #541D00",
"F  c #55170C",
"G  c #5C1A0C",
"H  c #431614",
"J  c #491311",
"K  c #431A12",
"L  c #4E1D15",
"P  c #421C1B",
"I  c #541912",
"U  c #5B1B13",
"Y  c #620B04",
"T  c #680800",
"R  c #611100",
"E  c #611108",
"W  c #6A140C",
"Q  c #621C0E",
"!  c #681D0A",
"~  c #68180F",
"^  c #651E12",
"/  c #6C1F15",
"(  c #751F10",
")  c #4E2100",
"_  c #5C220D",
"`  c #492414",
"'  c #432118",
"]  c #492118",
"[  c #4A221A",
"{  c #4C231D",
"}  c #4B2C19",
"|  c #582716",
" . c #5C2719",
".. c #5D241B",
"X. c #532E1C",
"o. c #503112",
"O. c #722602",
"+. c #6A2611",
"@. c #60241A",
"#. c #7E2612",
"$. c #7C2418",
"%. c #762A1A",
"&. c #65331C",
"*. c #693319",
"=. c #723217",
"-. c #7E301A",
";. c #7B301D",
":. c #442E23",
">. c #5C2A21",
",. c #463F39",
"<. c #752820",
"1. c #683821",
"2. c #7F3625",
"3. c #7F4426",
"4. c #7F5427",
"5. c #861505",
"6. c #85170E",
"7. c #801C0D",
"8. c #971805",
"9. c #851E15",
"0. c #B61700",
"q. c #862D0D",
"w. c #903A07",
"e. c #892317",
"r. c #852C1A",
"t. c #932214",
"y. c #912815",
"u. c #962B1B",
"i. c #A02708",
"p. c #A2260C",
"a. c #A8240B",
"s. c #AC240E",
"d. c #BA230E",
"f. c #A73103",
"g. c #AC2714",
"h. c #A22C14",
"j. c #A22718",
"k. c #B82515",
"l. c #F51B00",
"z. c #D42604",
"x. c #DD2002",
"c. c #DD3310",
"v. c #DF381D",
"b. c #EF2501",
"n. c #E32914",
"m. c #D43829",
"M. c #8F471E",
"N. c #AE510E",
"B. c #A8581B",
"V. c #964321",
"C. c #A54221",
"Z. c #CB4800",
"A. c #FD4A07",
"S. c #E34C1F",
"D. c #D27820",
"F. c #CB7E30",
/* pixels */
"< < X 1 y.g.1 X X s < , . . < , < < w a w w < r * w > k %.w e w ",
"N . <   * 1 X X < . w w < ; H < s < e a a f e 4 < , w *.w e w X ",
"< < < X . V 1 < > e X w < < : 2 < r e ;.X.1 w q g w j * s 1 1 w ",
"< a < W X O 1 a < < X < < < > $ e w . q f w < e f < U S.j < 7 w ",
"w Z w 1 < m.7 > X w q.< < , a ; a . < c f z l y g a < j w > w w ",
"; & w e w ..r d w , M w.w w g * s r e e ] g w u > w s X w 1 < 4 ",
". &.w w N P a , w 1 w >.1 9 1 O.L y f e . r < J s a 1 X > s < | ",
"w q B ) : g.8 s r w w P w . , r V g s v < > j s 7 s > s < a ! > ",
"A.< a 4 X X t.s i.a . < < 3 < . w } j k c s f w l k s , 1 5 s.. ",
"< X < X s X m r 1 a X C X r 1 > w < r x h q w 1 < s w U * X L 1 ",
"w . w , J ' N.< X 1 < L w . s 9 / X X w X F > 3.  < B., 2 ~ < w ",
"w w { 1 < < 5.w < q 8 C . < . < < w . w ^ < w . > :.8   w w x.w ",
"$.A e k s f f < < w 1 , < s X 9 =.w , 1 < w w < X , y . r f e.w ",
"f f f q w 6.f w 1 w a 1 < q 1 < . w 2 - w . r X < > r q < s 2.: ",
"# v.7.k.Z.k 9 < . w r > a v l j X < u r . w < X < < W b x < q N ",
"f e 9 j F.w , > w e j . 7 8.w ..< e s w < w w 1 = K Q D.E , k M.",
"f k f f . X . . g j < . ] 5 6 . . s # . w w f < , 7 2 j., e t ` ",
", k r , w w 9 r , 1.X a r < w w < X e < < a , L < X 1 < & > y 3 ",
"e 7 q w > q X 1 ,.s w X v 1 > k w a s < r   < b a < ; < w < f <.",
"f s + r w n < < 1 g c > X X g v 1 w p < < X 1 w w 3 X , 5 k ..s ",
"s V.q & R 1 ` w w X 1 . j < s a t < y Q K 3 , q # #.X < X y < ` ",
", a h.G y 1 , < < < w < s g < < > . . X w f X < f 1 < 1 X > > g ",
"Y < r e } H w 4.w e < a w %.& L < 4 w < . . r > < f < b X , X X ",
"> d a > r -.f w < a 9 e a I + S > X < w . w . : a a a < V e < ; ",
". w ` % s u.s f w a s w w > w , f < < < 5 < s w f 4 w 1 a.n o . ",
"w . w e e r , X s w 9 s r a < r 9 w < ] > < < , > X e * p.. o 1 ",
"> > * j o.< a 5 r.r f w s s 1 w , w w w C.w f g w < < T p < r _ ",
", < j w 1 X s < f.5 a w X w X < , 9 9 w . 1 a 9 X . G , w a 1 < ",
"; m 9 9 X   w 5 l.+   < f < ; # * & a 1 > M < s ; n.; w w . 9 : ",
"K < < < w s x , 0.b.n D 7 z.6 X w e , p 1 I #.d., . X w w 1 < 0 ",
"V . b 1 q ; 6 u.y e k ; < w r w w A 9 < < a 7 r > e Q . < , w 9 ",
"a ; c.+.; > @.x X w X 1 . w w f 1 X < < w < < e , w 9.. ] 1 U , "
};
